<?xml version="1.0" encoding="iso-8859-1"?>
<!-- Generator: Adobe Illustrator 19.0.0, SVG Export Plug-In . SVG Version: 6.00 Build 0)  -->
<svg version="1.1" id="Capa_1" xmlns="http://www.w3.org/2000/svg" xmlns:xlink="http://www.w3.org/1999/xlink" x="0px" y="0px"
	 viewBox="0 0 512.001 512.001" style="enable-background:new 0 0 512.001 512.001;" xml:space="preserve">
<path style="fill:#00C3FF;" d="M433.365,7.192H78.005c-7.447,0-13.541,6.093-13.541,13.54v113.3c0,7.447,6.093,13.54,13.541,13.54
	c4.506,0,344.593,0,355.361,0c7.447,0,13.54-6.093,13.54-13.54v-113.3C446.905,13.286,440.812,7.192,433.365,7.192z"/>
<path style="fill:#06B0F2;" d="M84.465,134.032v-113.3c0-7.447,6.093-13.54,13.541-13.54H78.005c-7.447,0-13.541,6.093-13.541,13.54
	v113.3c0,7.447,6.093,13.54,13.541,13.54h20.001C90.559,147.572,84.465,141.479,84.465,134.032z"/>
<path style="fill:#F0A479;" d="M352.793,266.755L352.793,266.755c-10.911,0-19.755,8.844-19.755,19.755v-3.996
	c0-10.911-8.844-19.755-19.754-19.755l0,0c-10.911,0-19.755,8.844-19.755,19.755v-5.329c0-10.91-8.844-19.754-19.754-19.754
	c-11.014,0-20.044,9.008-20.044,20.043v18.873l0,0c0-137.806,0.003-122.764-0.008-139.9c-0.008-10.924-8.872-19.77-19.795-19.764
	c-10.925,0.009-19.714,8.871-19.706,19.794V343.21c0,2.461-3.124,3.515-4.615,1.558l-32.954-43.26
	c-16.352-22.891-45.568-2.869-35.923,18.057l38.972,89.186c0.067,0.145,5.639,11.952,14.33,20.557v0.005
	c0.099,0.095,12.582,12.458,12.582,12.458c6.579,6.516,7.774,17.528,7.89,30.733h-0.003c0,12.822-2.865,31.684,18.365,31.684
	c10.536,0,83.58,0,95.905,0c6.147-0.694,15.463-4.221,15.463-19.267c0,0-0.011-22.433-0.011-22.451
	c-0.018-28.651,28.357-26.033,28.323-61.666V286.51l0,0C372.549,275.622,363.726,266.755,352.793,266.755z"/>
<g>
	<path style="fill:#EA976E;" d="M237.068,472.504h0.002c-0.115-13.205-1.311-24.216-7.89-30.733c0,0-12.482-12.363-12.581-12.458
		v-0.005c-8.69-8.605-14.263-20.412-14.33-20.557l-38.972-89.186c-4.551-9.874-0.447-19.54,6.871-24.599
		c-16.435-11.43-37.905,6.232-29.439,24.599l38.972,89.186c0.067,0.145,5.639,11.952,14.33,20.557v0.005
		c0.099,0.095,12.581,12.458,12.581,12.458c6.579,6.516,7.775,17.528,7.89,30.733h-0.002c0,12.822-2.865,31.684,18.365,31.684
		c3.116,0,11.702,0,22.567,0C234.203,504.188,237.068,485.326,237.068,472.504z"/>
	<path style="fill:#EA976E;" d="M214.222,343.211c0,2.461-3.124,3.515-4.615,1.558l0,0l0,0l10.087,13.112
		c3.148,3.974,17.096,20.089,17.096-6.27V156.477c-0.005-6.726,3.334-12.663,8.446-16.24c-13.841-9.227-31.02,0.709-31.013,16.24
		L214.222,343.211L214.222,343.211z"/>
	<path style="fill:#EA976E;" d="M349.962,325.391v-58.41c-9.565,1.376-16.923,9.583-16.923,19.529c0-4.169-0.002-4.029-0.002-4.029
		v42.91c0,4.673,3.789,8.462,8.462,8.462S349.962,330.064,349.962,325.391z"/>
	<path style="fill:#EA976E;" d="M262.193,333.854c4.673,0,8.462-3.789,8.462-8.462V257.7c-9.473,1.496-16.923,9.638-16.923,19.486
		v-34.799c0,1.13-0.002-5.646-0.002,83.005C253.73,330.064,257.518,333.854,262.193,333.854z"/>
	<path style="fill:#EA976E;" d="M301.991,333.854c4.673,0,8.462-3.789,8.462-8.462v-62.406c-9.565,1.377-16.923,9.583-16.923,19.529
		c0-5.552-0.002-5.366-0.002-5.366v48.245C293.528,330.064,297.317,333.854,301.991,333.854z"/>
</g>
<path d="M102.551,42.81c-3.932,0-6.521,2.109-6.521,4.507V108.4c0,2.397,2.589,4.507,6.521,4.507h16.973
	c13.233,0,23.589-6.137,23.589-22.63V65.44c0-16.493-10.356-22.63-23.589-22.63H102.551z M128.154,65.44v24.836
	c0,6.52-3.26,9.589-8.63,9.589h-8.534V55.851h8.534C124.894,55.851,128.154,58.919,128.154,65.44z"/>
<path d="M151.835,65.44v25.411c0,16.493,10.261,22.63,23.493,22.63c13.232,0,23.589-6.137,23.589-22.63V65.44
	c0-16.493-10.357-22.63-23.589-22.63C162.095,42.81,151.835,48.947,151.835,65.44z M183.958,65.44v25.411
	c0,6.616-3.26,9.59-8.629,9.59c-5.37,0-8.534-2.973-8.534-9.59V65.44c0-6.616,3.164-9.59,8.534-9.59
	C180.697,55.851,183.958,58.823,183.958,65.44z"/>
<path d="M242.543,47.316V79.92c-19.315-36.841-17.545-37.11-26.562-37.11c-3.74,0-7.479,1.438-7.479,4.603v60.891
	c0,6.137,14.959,6.137,14.959,0V75.7l18.22,33.179c1.822,3.356,4.891,4.027,8.342,4.027c3.74,0,7.479-1.534,7.479-4.603V47.316
	c0-3.164-3.739-4.507-7.479-4.507C246.282,42.81,242.543,44.152,242.543,47.316z"/>
<path d="M281.085,47.221c-18.774,61.57-18.027,58.883-18.027,59.548c0,5.379,12.905,8.865,14.48,3.356l3.26-11.987h20.233
	l3.26,11.987c1.631,5.699,15.852,1.862,14.288-4.411l-17.932-58.493C298.554,40.561,283.18,40.553,281.085,47.221z M283.865,86.633
	l7-25.699l7,25.699H283.865z"/>
<path d="M346.574,108.304v-52.07h13.233c5.933,0,6.114-13.425,0-13.425h-41.425c-6.116,0-5.925,13.425,0,13.425h13.233v52.069
	C331.615,114.44,346.574,114.441,346.574,108.304z"/>
<path d="M410.914,55.851c5.932,0,6.112-13.041,0-13.041h-34.138c-3.26,0-6.521,1.534-6.521,4.603v60.891
	c0,3.068,3.261,4.603,6.521,4.603h34.138c3.164,0,4.506-3.356,4.506-6.425c0-3.548-1.63-6.616-4.506-6.616h-25.699V83.565h14.384
	c3.165,0,4.507-3.068,4.507-5.657c0-3.068-1.63-5.85-4.507-5.85h-14.384V55.851H410.914z"/>
<path d="M447.219,67.69c4.142,0,7.5-3.357,7.5-7.5V21.04C454.72,9.438,445.281,0,433.68,0H78.319c-11.602,0-21.04,9.438-21.04,21.04
	v113.3c0,11.602,9.438,21.04,21.04,21.04h128.753c-0.054,1.074-0.035,172.452-0.035,173.531L183,297.357
	c-21.572-30.014-62.126-3.522-48.799,25.582l38.944,89.122c0.019,0.044,0.039,0.087,0.058,0.13
	c7.34,15.895,17.757,24.628,28.447,35.216c5.916,5.861,5.79,20.996,5.604,29.386c-0.203,9.208-0.456,20.669,7.072,28.363
	c4.439,4.538,10.783,6.839,18.854,6.839h30.869c4.142,0,7.5-3.357,7.5-7.5s-3.358-7.5-7.5-7.5h-30.869
	c-3.883,0-6.619-0.783-8.13-2.328c-3.731-3.814-2.75-14.441-2.734-21.653c0.002-0.089,0.003-0.178,0.002-0.267
	c-0.11-12.68-0.992-26.963-10.112-35.997c-10.891-10.787-18.816-17.213-25.357-30.789l-38.931-89.091
	c-0.02-0.046-0.041-0.092-0.062-0.137c-5.859-12.712,11.933-26.062,23.007-10.558c0.045,0.063,0.09,0.124,0.137,0.186l37.569,49.319
	c4.338,5.695,13.467,2.613,13.467-4.545V156.779c-0.005-6.692,5.414-12.283,12.211-12.287c6.875-0.004,12.285,5.651,12.29,12.269
	c0.013,17.154,0.008,148.852,0.008,168.869c0,4.143,3.358,7.5,7.5,7.5c4.142,0,7.5-3.357,7.5-7.5V298.7
	c0.393-1.389,0.289-0.409,0.289-21.205c0-6.757,5.497-12.255,12.255-12.255c6.756,0,12.254,5.497,12.254,12.255
	c0,0.488,0-2.582,0,48.137c0,4.143,3.358,7.5,7.5,7.5s7.5-3.357,7.5-7.5c0-2.552,0-44.118,0-42.808
	c0-6.757,5.497-12.255,12.254-12.255c6.756,0,12.254,5.497,12.254,12.255c0,4.597,0,38.115,0,42.808c0,4.143,3.358,7.5,7.5,7.5
	c4.142,0,7.5-3.357,7.5-7.5v-38.812c0-6.757,5.497-12.255,12.255-12.255c6.756,0,12.254,5.497,12.254,12.246l-0.142,118.364
	c-0.959,12.853-6.611,18.7-13.064,25.376c-17.326,17.927-15.105,23.76-15.105,54.678c0,7.425-2.524,10.968-8.422,11.767h-29.575
	c-4.142,0-7.5,3.357-7.5,7.5s3.358,7.5,7.5,7.5c31.98,0,30.23,0.027,30.877-0.048c13.852-1.564,22.122-11.553,22.122-26.723
	c-0.015-30.459-1.855-31.063,10.892-44.248c7.771-8.04,17.442-18.048,17.422-39.872c-0.092-91.944-0.278,115.423,0-114.286
	c0-23.29-27.528-35.886-45.13-20.558c-9.472-12.342-27.086-14.214-38.904-4.508c-8.024-11.304-22.933-14.622-34.782-8.452
	c0.002-103.182,0.007-96.912-0.044-97.919h172.177c11.602,0,21.04-9.439,21.04-21.04V95.191c0-4.143-3.358-7.5-7.5-7.5
	c-4.142,0-7.5,3.357-7.5,7.5v39.149c0,3.33-2.709,6.039-6.039,6.039h-177.63c-5.233-6.992-13.391-10.887-21.794-10.889
	c-0.001,0-0.002,0-0.003,0l0,0c-0.005,0-0.012,0-0.017,0c-8.282,0.006-16.452,3.805-21.736,10.889H78.319
	c-3.33,0-6.039-2.709-6.039-6.039V21.04c0-3.33,2.709-6.039,6.039-6.039H433.68c3.33,0,6.039,2.709,6.039,6.039v39.148
	C439.719,64.331,443.077,67.69,447.219,67.69z"/>
<g>
</g>
<g>
</g>
<g>
</g>
<g>
</g>
<g>
</g>
<g>
</g>
<g>
</g>
<g>
</g>
<g>
</g>
<g>
</g>
<g>
</g>
<g>
</g>
<g>
</g>
<g>
</g>
<g>
</g>
</svg>
